<?xml version="1.0" encoding="UTF-8" standalone="no"?>
<!-- Created with Inkscape (http://www.inkscape.org/) -->

<svg
   xmlns:dc="http://purl.org/dc/elements/1.1/"
   xmlns:cc="http://creativecommons.org/ns#"
   xmlns:rdf="http://www.w3.org/1999/02/22-rdf-syntax-ns#"
   xmlns:svg="http://www.w3.org/2000/svg"
   xmlns="http://www.w3.org/2000/svg"
   xmlns:sodipodi="http://sodipodi.sourceforge.net/DTD/sodipodi-0.dtd"
   xmlns:inkscape="http://www.inkscape.org/namespaces/inkscape"
   width="765"
   height="990"
   id="svg17218"
   version="1.1"
   inkscape:version="0.48.3.1 r9886"
   sodipodi:docname="csensetests.svg"
   inkscape:export-filename="/home/j/projects/bcard/boards/csensetests/csensetests.png"
   inkscape:export-xdpi="600"
   inkscape:export-ydpi="600">
  <defs
     id="defs17220" />
  <sodipodi:namedview
     id="base"
     pagecolor="#ffffff"
     bordercolor="#666666"
     borderopacity="1.0"
     inkscape:pageopacity="0.0"
     inkscape:pageshadow="2"
     inkscape:zoom="0.99394531"
     inkscape:cx="662.73988"
     inkscape:cy="533.48343"
     inkscape:document-units="in"
     inkscape:current-layer="layer1"
     showgrid="false"
     units="in"
     inkscape:window-width="1438"
     inkscape:window-height="883"
     inkscape:window-x="0"
     inkscape:window-y="15"
     inkscape:window-maximized="0" />
  <metadata
     id="metadata17223">
    <rdf:RDF>
      <cc:Work
         rdf:about="">
        <dc:format>image/svg+xml</dc:format>
        <dc:type
           rdf:resource="http://purl.org/dc/dcmitype/StillImage" />
        <dc:title></dc:title>
      </cc:Work>
    </rdf:RDF>
  </metadata>
  <g
     inkscape:label="Layer 1"
     inkscape:groupmode="layer"
     id="layer1"
     transform="translate(0,-62.362)">
    <path
       inkscape:connector-curvature="0"
       id="path31909"
       d="m 555.91892,254.54357 -30.23545,0"
       style="fill:none;stroke:#000000;stroke-width:5;stroke-linecap:round;stroke-linejoin:round;stroke-miterlimit:4;stroke-opacity:1;stroke-dasharray:none;stroke-dashoffset:0" />
    <path
       style="fill:#000000;fill-opacity:1;stroke:none"
       d="m 137.35405,201.18906 0,36.75 a 2.50025,2.50025 0 0 0 0.71875,1.8125 2.50025,2.50025 0 0 0 0.375,0.4375 l 60.46875,60.46875 a 2.50025,2.50025 0 1 0 3.53125,-3.53125 l -60.09375,-60.09375 0,-16.9375 56.5625,56.5625 a 2.50025,2.50025 0 1 0 3.53125,-3.53125 l -60.09375,-60.09375 0,-6.84375 10.09375,0 46.46875,46.46875 a 2.50025,2.50025 0 1 0 3.53125,-3.53125 l -42.9375,-42.9375 16.9375,0 22.46875,22.46875 a 2.50025,2.50025 0 1 0 3.53125,-3.53125 l -18.9375,-18.9375 15.25,0 a 2.5017572,2.5017572 0 1 0 0.1875,-5 l -20.4375,0 -7.0625,0 -16.9375,0 -7.0625,0 -5.09375,0 -5,0 z m 66.78125,0 0,85.625 -56.15625,-56.15625 a 2.50025,2.50025 0 0 0 -2.0625,-0.75 2.50025,2.50025 0 0 0 -1.46875,4.28125 l 59.6875,59.6875 0,16.9375 -56.15625,-56.15625 a 2.50025,2.50025 0 0 0 -2.0625,-0.75 2.50025,2.50025 0 0 0 -1.46875,4.28125 l 59.6875,59.6875 0,16.1875 -0.75,0 -55.40625,-55.40625 a 2.50025,2.50025 0 0 0 -2.0625,-0.75 2.50025,2.50025 0 0 0 -1.46875,4.28125 l 51.875,51.875 -16.9375,0 -31.40625,-31.40625 a 2.50025,2.50025 0 0 0 -2.0625,-0.75 2.50025,2.50025 0 0 0 -1.46875,4.28125 l 27.875,27.875 -16.9375,0 -7.40625,-7.40625 a 2.50025,2.50025 0 0 0 -2.0625,-0.75 2.50025,2.50025 0 0 0 -1.46875,4.28125 l 3.875,3.875 -0.90625,0 a 2.5017572,2.5017572 0 1 0 -0.1875,5 l 6.09375,0 7.0625,0 16.9375,0 7.0625,0 16.9375,0 7.8125,0 0,-21.21875 a 2.50025,2.50025 0 0 0 0,-1.65625 l 0,-22.34375 a 2.50025,2.50025 0 0 0 0,-1.65625 l 0,-91 -5,0 z m -64.5625,58.5 a 2.50025,2.50025 0 0 0 -2.21875,2.53125 l 0,76.84375 5,0 0,-70.96875 56.5625,56.5625 a 2.50025,2.50025 0 1 0 3.53125,-3.53125 l -60.46875,-60.46875 a 2.50025,2.50025 0 0 0 -0.53125,-0.40625 2.50025,2.50025 0 0 0 -1.875,-0.5625 z"
       id="rect31066"
       inkscape:connector-curvature="0" />
    <path
       style="font-size:medium;font-style:normal;font-variant:normal;font-weight:normal;font-stretch:normal;text-indent:0;text-align:start;text-decoration:none;line-height:normal;letter-spacing:normal;word-spacing:normal;text-transform:none;direction:ltr;block-progression:tb;writing-mode:lr-tb;text-anchor:start;baseline-shift:baseline;color:#000000;fill:#000000;fill-opacity:1;stroke:none;stroke-width:5;marker:none;visibility:visible;display:inline;overflow:visible;enable-background:accumulate;font-family:Sans;-inkscape-font-specification:Sans"
       d="m 171.8853,207.88956 a 2.50025,2.50025 0 0 0 -1.46875,4.28125 l 34.5,34.5 a 2.50025,2.50025 0 1 0 3.53125,-3.53125 l -34.5,-34.5 a 2.50025,2.50025 0 0 0 -2.0625,-0.75 z"
       inkscape:connector-curvature="0" />
    <path
       style="font-size:medium;font-style:normal;font-variant:normal;font-weight:normal;font-stretch:normal;text-indent:0;text-align:start;text-decoration:none;line-height:normal;letter-spacing:normal;word-spacing:normal;text-transform:none;direction:ltr;block-progression:tb;writing-mode:lr-tb;text-anchor:start;baseline-shift:baseline;color:#000000;fill:#000000;fill-opacity:1;stroke:none;stroke-width:5;marker:none;visibility:visible;display:inline;overflow:visible;enable-background:accumulate;font-family:Sans;-inkscape-font-specification:Sans"
       d="m 148.0103,207.73331 a 2.50025,2.50025 0 0 0 -1.75,4.3125 l 58.65625,58.625 a 2.50025,2.50025 0 1 0 3.53125,-3.53125 l -58.65625,-58.625 a 2.50025,2.50025 0 0 0 -1.78125,-0.78125 z"
       inkscape:connector-curvature="0" />
    <path
       style="font-size:medium;font-style:normal;font-variant:normal;font-weight:normal;font-stretch:normal;text-indent:0;text-align:start;text-decoration:none;line-height:normal;letter-spacing:normal;word-spacing:normal;text-transform:none;direction:ltr;block-progression:tb;writing-mode:lr-tb;text-anchor:start;baseline-shift:baseline;color:#000000;fill:#000000;fill-opacity:1;stroke:none;stroke-width:5;marker:none;visibility:visible;display:inline;overflow:visible;enable-background:accumulate;font-family:Sans;-inkscape-font-specification:Sans"
       d="m 139.91655,307.92081 a 2.50025,2.50025 0 0 0 -1.46875,4.28125 l 18.78125,18.78125 a 2.50025,2.50025 0 1 0 3.53125,-3.53125 l -18.78125,-18.78125 a 2.50025,2.50025 0 0 0 -2.0625,-0.75 z"
       inkscape:connector-curvature="0" />
    <path
       style="font-size:medium;font-style:normal;font-variant:normal;font-weight:normal;font-stretch:normal;text-indent:0;text-align:start;text-decoration:none;line-height:normal;letter-spacing:normal;word-spacing:normal;text-transform:none;direction:ltr;block-progression:tb;writing-mode:lr-tb;text-anchor:start;baseline-shift:baseline;color:#000000;fill:#000000;fill-opacity:1;stroke:none;stroke-width:5;marker:none;visibility:visible;display:inline;overflow:visible;enable-background:accumulate;font-family:Sans;-inkscape-font-specification:Sans"
       d="m 139.91655,283.92081 a 2.50025,2.50025 0 0 0 -1.46875,4.28125 l 42.65625,42.6875 a 2.50025,2.50025 0 1 0 3.53125,-3.53125 l -42.65625,-42.6875 a 2.50025,2.50025 0 0 0 -2.0625,-0.75 z"
       inkscape:connector-curvature="0" />
    <path
       style="font-size:medium;font-style:normal;font-variant:normal;font-weight:normal;font-stretch:normal;text-indent:0;text-align:start;text-decoration:none;line-height:normal;letter-spacing:normal;word-spacing:normal;text-transform:none;direction:ltr;block-progression:tb;writing-mode:lr-tb;text-anchor:start;baseline-shift:baseline;color:#000000;fill:#000000;fill-opacity:1;stroke:none;stroke-width:5;marker:none;visibility:visible;display:inline;overflow:visible;enable-background:accumulate;font-family:Sans;-inkscape-font-specification:Sans"
       d="m 195.72905,207.73331 a 2.50025,2.50025 0 0 0 -1.5,4.28125 l 10.6875,10.65625 a 2.50025,2.50025 0 1 0 3.53125,-3.53125 l -10.6875,-10.65625 a 2.50025,2.50025 0 0 0 -2.03125,-0.75 z"
       inkscape:connector-curvature="0" />
    <path
       style="fill:none;stroke:#000000;stroke-width:5;stroke-linecap:round;stroke-linejoin:round;stroke-miterlimit:4;stroke-opacity:1;stroke-dasharray:none;stroke-dashoffset:0"
       d="m 138.69476,276.18329 -23.85929,0"
       id="path31715"
       inkscape:connector-curvature="0" />
    <path
       style="fill:none;stroke:#000000;stroke-width:5;stroke-linecap:round;stroke-linejoin:round;stroke-miterlimit:4;stroke-opacity:1;stroke-dasharray:none;stroke-dashoffset:0"
       d="m 145.82445,255.12074 -31.06307,0"
       id="path31717"
       inkscape:connector-curvature="0" />
    <path
       style="fill:none;stroke:#000000;stroke-width:5;stroke-linecap:round;stroke-linejoin:round;stroke-miterlimit:4;stroke-opacity:1;stroke-dasharray:none;stroke-dashoffset:0"
       d="m 139.5669,218.61984 -6.41384,0 -4.27589,4.27589 0,7.41993 -2.70387,2.70387 -12.3875,0"
       id="path31719"
       inkscape:connector-curvature="0" />
    <path
       style="fill:#000000;fill-opacity:1;stroke:none"
       d="m 346.10405,201.18906 0,36.71875 c -0.0343,1.50629 1.55902,2.82038 3.03125,2.5 l 59.40625,59.375 c 0.44856,0.50519 1.329,0.5352 1.81092,0.0617 0.48192,-0.47347 0.4675,-1.3543 -0.0297,-1.81173 l -59.34372,-59.37497 c 0.0795,-0.24169 0.12182,-0.49558 0.125,-0.75 l 0,-7.5625 57.4375,57.4375 c 0.44856,0.50519 1.329,0.5352 1.81092,0.0617 0.48192,-0.47347 0.4675,-1.3543 -0.0297,-1.81173 l -59.21872,-59.24997 0,-8.4375 57.4375,57.4375 c 0.44856,0.50519 1.329,0.5352 1.81092,0.0617 0.48192,-0.47347 0.4675,-1.3543 -0.0297,-1.81173 l -59.21872,-59.24997 0,-8.4375 57.4375,57.4375 c 0.44856,0.50519 1.329,0.5352 1.81092,0.0617 0.48192,-0.47347 0.4675,-1.3543 -0.0297,-1.81173 l -55.8125,-55.84375 8.4375,0 45.59378,45.59378 c 0.44856,0.50519 1.329,0.5352 1.81092,0.0617 0.48192,-0.47347 0.4675,-1.3543 -0.0297,-1.81173 l -43.8125,-43.84375 8.4375,0 33.59378,33.59378 c 0.44856,0.50519 1.329,0.5352 1.81092,0.0617 0.48192,-0.47347 0.4675,-1.3543 -0.0297,-1.81173 l -31.8125,-31.84375 8.4375,0 21.59378,21.59378 c 0.44856,0.50519 1.329,0.5352 1.81092,0.0617 0.48192,-0.47347 0.4675,-1.3543 -0.0297,-1.81173 l -19.84375,-19.84375 8.46875,0 9.59375,9.59375 c 0.44856,0.50519 1.329,0.5352 1.81092,0.0617 0.48192,-0.47347 0.4675,-1.3543 -0.0297,-1.81173 l -7.84375,-7.84375 4.5,0 c 1.309,0.0491 2.54466,-1.09725 2.59375,-2.40625 0.0491,-1.309 -1.09725,-2.54466 -2.40625,-2.59375 l -9.6875,0 -3.53125,0 -8.46875,0 -3.53125,0 -8.4375,0 -3.5625,0 -8.4375,0 -3.5625,0 -6.84375,0 z m 66.78125,0 0,21.40625 -14.40625,-14.40625 c -0.2822,-0.29997 -0.71926,-0.44566 -1.125,-0.375 -0.88972,0.17692 -1.27726,1.49456 -0.625,2.125 l 16.15625,16.1875 0,8.46875 -26.4375,-26.4375 c -0.25624,-0.26389 -0.63343,-0.40534 -1,-0.375 -0.95562,0.0817 -1.44867,1.49918 -0.75,2.15625 l 28.1875,28.1875 0,8.46875 -38.875,-38.875 c -0.25624,-0.26389 -0.63343,-0.40534 -1,-0.375 -0.95562,0.0817 -1.44867,1.49918 -0.75,2.15625 l 40.625,40.625 0,8.46875 -50.8125,-50.8125 c -0.28826,-0.30975 -0.74107,-0.4566 -1.15625,-0.375 -0.87982,0.1942 -1.24547,1.50287 -0.59375,2.125 l 52.5625,52.59375 0,8.46875 -57.03125,-57.0625 c -0.23515,-0.23992 -0.57032,-0.37861 -0.90625,-0.375 -0.99701,-0.011 -1.59777,1.4694 -0.875,2.15625 l 58.8125,58.8125 0,8.46875 -57.03125,-57.0625 c -0.23515,-0.23992 -0.57032,-0.37861 -0.90625,-0.375 -0.99701,-0.011 -1.59777,1.4694 -0.875,2.15625 l 58.8125,58.8125 0,8.46875 -57.03125,-57.0625 c -0.23515,-0.23992 -0.57032,-0.37861 -0.90625,-0.375 -0.99701,-0.011 -1.59777,1.4694 -0.875,2.15625 l 58.8125,58.8125 0,8.46875 -57.03125,-57.0625 c -0.23515,-0.23992 -0.57032,-0.37861 -0.90625,-0.375 -0.99701,-0.011 -1.59777,1.4694 -0.875,2.15625 l 58.8125,58.8125 0,8.46875 -57.03125,-57.0625 c -0.23515,-0.23992 -0.57032,-0.37861 -0.90625,-0.375 -0.99701,-0.011 -1.59777,1.4694 -0.875,2.15625 l 58.8125,58.8125 0,8.46875 -57.03125,-57.0625 c -0.23515,-0.23992 -0.57032,-0.37861 -0.90625,-0.375 -0.99701,-0.011 -1.59777,1.4694 -0.875,2.15625 l 58.75,58.75 -8.46875,0 -48.5,-48.53125 c -0.23515,-0.23992 -0.57032,-0.37861 -0.90625,-0.375 -0.99701,-0.011 -1.59777,1.4694 -0.875,2.15625 l 46.75,46.75 -8.46875,0 -36.5,-36.53125 c -0.23515,-0.23992 -0.57032,-0.37861 -0.90625,-0.375 -0.99701,-0.011 -1.59777,1.4694 -0.875,2.15625 l 34.75,34.75 -8.4375,0 -24.53125,-24.53125 c -0.23515,-0.23992 -0.57032,-0.37861 -0.90625,-0.375 -0.99701,-0.011 -1.59777,1.4694 -0.875,2.15625 l 22.75,22.75 -8.4375,0 -12.53125,-12.53125 c -0.23515,-0.23992 -0.57032,-0.37861 -0.90625,-0.375 -0.99701,-0.011 -1.59777,1.4694 -0.875,2.15625 l 10.75,10.75 -8.5625,0 c -1.309,-0.0491 -2.54466,1.09725 -2.59375,2.40625 -0.0491,1.309 1.09725,2.54466 2.40625,2.59375 l 13.75,0 3.5625,0 8.4375,0 3.53125,0 8.46875,0 3.53125,0 8.46875,0 3.53125,0 3.53125,0 5,0 0,-96.90625 c 0,-1.09366 0.0167,-1.34351 0,-2.5625 l 0,-38.40625 z m -64.5625,47.4375 c -1.22306,0.13836 -2.24181,1.30061 -2.21875,2.53125 l 0,87.90625 5,0 0,-12.71875 5.1875,5.1875 c 0.46628,0.46654 1.31508,0.46665 1.78149,2.4e-4 0.46641,-0.46641 0.4663,-1.31521 -2.4e-4,-1.78149 l -6.96875,-6.96875 0,-8.4375 16.90625,16.875 c 0.42799,0.57149 1.37973,0.63946 1.88459,0.13459 0.50487,-0.50486 0.4369,-1.4566 -0.13459,-1.88459 l -18.65625,-18.6875 0,-8.4375 29.34375,29.34375 c 0.45743,0.49717 1.33826,0.51159 1.81173,0.0297 0.47347,-0.48192 0.44346,-1.36236 -0.0617,-1.81092 l -31.09378,-31.12503 0,-8.4375 41.65625,41.65625 c 0.46628,0.46654 1.31508,0.46665 1.78149,2.4e-4 0.46641,-0.46641 0.4663,-1.31521 -2.4e-4,-1.78149 l -43.4375,-43.4375 0,-8.4375 53.1875,53.15625 c 0.42799,0.57149 1.37973,0.63946 1.88459,0.13459 0.50487,-0.50486 0.4369,-1.4566 -0.13459,-1.88459 l -54.9375,-54.96875 0,-8.4375 57.4375,57.4375 c 0.44856,0.50519 1.329,0.5352 1.81092,0.0617 0.48192,-0.47347 0.4675,-1.3543 -0.0297,-1.81173 l -59.21872,-59.24997 0,-8.4375 57.4375,57.4375 c 0.44856,0.50519 1.329,0.5352 1.81092,0.0617 0.48192,-0.47347 0.4675,-1.3543 -0.0297,-1.81173 l -59.25,-59.28125 c -0.18442,-1.26749 -1.47698,-2.26629 -2.75,-2.125 z"
       id="rect31721"
       inkscape:connector-curvature="0"
       sodipodi:nodetypes="ccccscccccsccccsccccsccccsccccsccccsccccscccscccccccccccccccccccccccccccccccccccccccccccccccccccccccccccccccccccccccccccccccccccscccccccccccccccccccccsccccsccccsccccsccccsccccsccccscccc" />
    <path
       inkscape:connector-curvature="0"
       id="path31751"
       d="m 347.63942,263.83773 -23.85929,0"
       style="fill:none;stroke:#000000;stroke-width:5;stroke-linecap:round;stroke-linejoin:round;stroke-miterlimit:4;stroke-opacity:1;stroke-dasharray:none;stroke-dashoffset:0" />
    <path
       inkscape:connector-curvature="0"
       id="path31753"
       d="m 323.95756,244.72199 18.10964,0 6.92082,0.62881 6.41383,5.40774"
       style="fill:none;stroke:#000000;stroke-width:2.5;stroke-linecap:round;stroke-linejoin:round;stroke-miterlimit:4;stroke-opacity:1;stroke-dasharray:none;stroke-dashoffset:0"
       sodipodi:nodetypes="cccc" />
    <path
       inkscape:connector-curvature="0"
       id="path31755"
       d="m 348.35528,212.46213 -6.41384,0 -4.27589,4.27589 0,7.41993 -2.70387,2.70387 -12.3875,0"
       style="fill:none;stroke:#000000;stroke-width:5;stroke-linecap:round;stroke-linejoin:round;stroke-miterlimit:4;stroke-opacity:1;stroke-dasharray:none;stroke-dashoffset:0" />
    <path
       style="fill:#000000;fill-opacity:1;stroke:none"
       d="m 547.8228,201.18906 0,36.71875 a 2.50025,2.50025 0 0 0 2.4375,2.5625 l 59.65625,59.65625 a 1.750175,1.750175 0 1 0 2.46875,-2.46875 l -59.5625,-59.5625 a 2.50025,2.50025 0 0 0 0,-0.1875 l 0,-19.21875 57.28125,57.28125 a 1.5026019,1.5026019 0 1 0 2.125,-2.125 l -59.40625,-59.40625 0,-8.25 11.84375,0 45.59375,45.59375 a 1.250125,1.250125 0 1 0 1.78125,-1.75 l -43.8125,-43.84375 20.8125,0 21.40625,21.40625 a 1.0001,1.0001 0 1 0 1.40625,-1.40625 l -20,-20 17.40625,0 a 2.5017572,2.5017572 0 1 0 0.1875,-5 l -22.59375,0 -2.8125,0 -20.8125,0 -3.5625,0 -6.84375,0 -5,0 z m 66.78125,0 0,15.75 -7.40625,-7.40625 a 1.0001,1.0001 0 0 0 -0.8125,-0.3125 1.0001,1.0001 0 0 0 -0.59375,1.71875 l 8.8125,8.8125 0,21.1875 -31.25,-31.25 a 1.0001,1.0001 0 0 0 -0.71875,-0.3125 1.0001,1.0001 0 0 0 -0.6875,1.71875 l 32.65625,32.65625 0,20.84375 -55.21875,-55.21875 a 1.250125,1.250125 0 0 0 -1,-0.375 1.250125,1.250125 0 0 0 -0.75,2.125 l 56.96875,57 0,20.09375 -56.84375,-56.84375 a 1.50015,1.50015 0 0 0 -1.09375,-0.46875 1.50015,1.50015 0 0 0 -1.03125,2.59375 l 58.96875,58.96875 0,19.40625 -56.6875,-56.6875 a 1.750175,1.750175 0 0 0 -1.40625,-0.53125 1.750175,1.750175 0 0 0 -1.0625,3 l 59.15625,59.15625 0,17.25 -1.46875,0 -55.03125,-55.03125 a 2.0002,2.0002 0 0 0 -1.625,-0.625 2.0002,2.0002 0 0 0 -1.21875,3.4375 l 52.25,52.21875 -18,0 -31.21875,-31.21875 a 2.250225,2.250225 0 0 0 -1.84375,-0.6875 2.250225,2.250225 0 0 0 -1.34375,3.875 l 28.03125,28.03125 -17.28125,0 -7.40625,-7.40625 a 2.50025,2.50025 0 0 0 -2.03125,-0.75 2.50025,2.50025 0 0 0 -1.5,4.28125 l 3.875,3.875 -0.90625,0 a 2.5017572,2.5017572 0 1 0 -0.1875,5 l 6.09375,0 7.0625,0 17.28125,0 6.375,0 18,0 7.09375,0 0,-137.875 -5,0 z m -64.5625,59 a 2.50025,2.50025 0 0 0 -2.21875,2.53125 l 0,76.34375 5,0 0,-22.96875 14.875,14.875 a 2.50025,2.50025 0 1 0 3.53125,-3.53125 l -18.40625,-18.40625 0,-17.28125 38.9375,38.9375 a 2.2539029,2.2539029 0 1 0 3.1875,-3.1875 l -42.125,-42.125 0,-17.96875 56.9375,56.90625 a 2.0002,2.0002 0 1 0 2.8125,-2.8125 l -60.15625,-60.1875 a 2.50025,2.50025 0 0 0 -2.375,-1.125 z"
       id="rect31865"
       inkscape:connector-curvature="0" />
    <path
       inkscape:connector-curvature="0"
       id="path31907"
       d="m 549.1138,269.11971 -23.85929,0"
       style="fill:none;stroke:#000000;stroke-width:5;stroke-linecap:round;stroke-linejoin:round;stroke-miterlimit:4;stroke-opacity:1;stroke-dasharray:none;stroke-dashoffset:0" />
    <path
       inkscape:connector-curvature="0"
       id="path31911"
       d="m 550.0834,223.22661 -6.41384,0 -4.27589,4.27589 0,7.41993 -2.70387,2.70387 -12.3875,0"
       style="fill:none;stroke:#000000;stroke-width:5;stroke-linecap:round;stroke-linejoin:round;stroke-miterlimit:4;stroke-opacity:1;stroke-dasharray:none;stroke-dashoffset:0" />
    <path
       style="fill:none;stroke:#000000;stroke-width:5.00000048;stroke-linecap:round;stroke-linejoin:round;stroke-miterlimit:4;stroke-opacity:1;stroke-dasharray:none;stroke-dashoffset:0"
       d="m 340.87486,244.08925 -18.31321,0"
       id="path32205"
       inkscape:connector-curvature="0" />
    <path
       style="fill:none;stroke:#000000;stroke-width:5;stroke-linecap:round;stroke-linejoin:round;stroke-miterlimit:4;stroke-opacity:1;stroke-dasharray:none;stroke-dashoffset:0"
       d="m 555.91892,515.12129 -30.23545,0"
       id="path32207"
       inkscape:connector-curvature="0" />
    <path
       inkscape:connector-curvature="0"
       id="path32209"
       d="m 137.35405,461.76678 0,36.75 a 2.50025,2.50025 0 0 0 0.71875,1.8125 2.50025,2.50025 0 0 0 0.375,0.4375 l 60.46875,60.46875 a 2.50025,2.50025 0 1 0 3.53125,-3.53125 l -60.09375,-60.09375 0,-16.9375 56.5625,56.5625 a 2.50025,2.50025 0 1 0 3.53125,-3.53125 l -60.09375,-60.09375 0,-6.84375 10.09375,0 46.46875,46.46875 a 2.50025,2.50025 0 1 0 3.53125,-3.53125 l -42.9375,-42.9375 16.9375,0 22.46875,22.46875 a 2.50025,2.50025 0 1 0 3.53125,-3.53125 l -18.9375,-18.9375 15.25,0 a 2.5017572,2.5017572 0 1 0 0.1875,-5 l -20.4375,0 -7.0625,0 -16.9375,0 -7.0625,0 -5.09375,0 -5,0 z m 66.78125,0 0,85.625 -56.15625,-56.15625 a 2.50025,2.50025 0 0 0 -2.0625,-0.75 2.50025,2.50025 0 0 0 -1.46875,4.28125 l 59.6875,59.6875 0,16.9375 -56.15625,-56.15625 a 2.50025,2.50025 0 0 0 -2.0625,-0.75 2.50025,2.50025 0 0 0 -1.46875,4.28125 l 59.6875,59.6875 0,16.1875 -0.75,0 -55.40625,-55.40625 a 2.50025,2.50025 0 0 0 -2.0625,-0.75 2.50025,2.50025 0 0 0 -1.46875,4.28125 l 51.875,51.875 -16.9375,0 -31.40625,-31.40625 a 2.50025,2.50025 0 0 0 -2.0625,-0.75 2.50025,2.50025 0 0 0 -1.46875,4.28125 l 27.875,27.875 -16.9375,0 -7.40625,-7.40625 a 2.50025,2.50025 0 0 0 -2.0625,-0.75 2.50025,2.50025 0 0 0 -1.46875,4.28125 l 3.875,3.875 -0.90625,0 a 2.5017572,2.5017572 0 1 0 -0.1875,5 l 6.09375,0 7.0625,0 16.9375,0 7.0625,0 16.9375,0 7.8125,0 0,-21.21875 a 2.50025,2.50025 0 0 0 0,-1.65625 l 0,-22.34375 a 2.50025,2.50025 0 0 0 0,-1.65625 l 0,-91 -5,0 z m -64.5625,58.5 a 2.50025,2.50025 0 0 0 -2.21875,2.53125 l 0,76.84375 5,0 0,-70.96875 56.5625,56.5625 a 2.50025,2.50025 0 1 0 3.53125,-3.53125 l -60.46875,-60.46875 a 2.50025,2.50025 0 0 0 -0.53125,-0.40625 2.50025,2.50025 0 0 0 -1.875,-0.5625 z"
       style="fill:#000000;fill-opacity:1;stroke:none" />
    <path
       inkscape:connector-curvature="0"
       d="m 171.8853,468.46728 a 2.50025,2.50025 0 0 0 -1.46875,4.28125 l 34.5,34.5 a 2.50025,2.50025 0 1 0 3.53125,-3.53125 l -34.5,-34.5 a 2.50025,2.50025 0 0 0 -2.0625,-0.75 z"
       style="font-size:medium;font-style:normal;font-variant:normal;font-weight:normal;font-stretch:normal;text-indent:0;text-align:start;text-decoration:none;line-height:normal;letter-spacing:normal;word-spacing:normal;text-transform:none;direction:ltr;block-progression:tb;writing-mode:lr-tb;text-anchor:start;baseline-shift:baseline;color:#000000;fill:#000000;fill-opacity:1;stroke:none;stroke-width:5;marker:none;visibility:visible;display:inline;overflow:visible;enable-background:accumulate;font-family:Sans;-inkscape-font-specification:Sans"
       id="path32211" />
    <path
       inkscape:connector-curvature="0"
       d="m 148.0103,468.31103 a 2.50025,2.50025 0 0 0 -1.75,4.3125 l 58.65625,58.625 a 2.50025,2.50025 0 1 0 3.53125,-3.53125 l -58.65625,-58.625 a 2.50025,2.50025 0 0 0 -1.78125,-0.78125 z"
       style="font-size:medium;font-style:normal;font-variant:normal;font-weight:normal;font-stretch:normal;text-indent:0;text-align:start;text-decoration:none;line-height:normal;letter-spacing:normal;word-spacing:normal;text-transform:none;direction:ltr;block-progression:tb;writing-mode:lr-tb;text-anchor:start;baseline-shift:baseline;color:#000000;fill:#000000;fill-opacity:1;stroke:none;stroke-width:5;marker:none;visibility:visible;display:inline;overflow:visible;enable-background:accumulate;font-family:Sans;-inkscape-font-specification:Sans"
       id="path32213" />
    <path
       inkscape:connector-curvature="0"
       d="m 139.91655,568.49853 a 2.50025,2.50025 0 0 0 -1.46875,4.28125 l 18.78125,18.78125 a 2.50025,2.50025 0 1 0 3.53125,-3.53125 l -18.78125,-18.78125 a 2.50025,2.50025 0 0 0 -2.0625,-0.75 z"
       style="font-size:medium;font-style:normal;font-variant:normal;font-weight:normal;font-stretch:normal;text-indent:0;text-align:start;text-decoration:none;line-height:normal;letter-spacing:normal;word-spacing:normal;text-transform:none;direction:ltr;block-progression:tb;writing-mode:lr-tb;text-anchor:start;baseline-shift:baseline;color:#000000;fill:#000000;fill-opacity:1;stroke:none;stroke-width:5;marker:none;visibility:visible;display:inline;overflow:visible;enable-background:accumulate;font-family:Sans;-inkscape-font-specification:Sans"
       id="path32215" />
    <path
       inkscape:connector-curvature="0"
       d="m 139.91655,544.49853 a 2.50025,2.50025 0 0 0 -1.46875,4.28125 l 42.65625,42.6875 a 2.50025,2.50025 0 1 0 3.53125,-3.53125 l -42.65625,-42.6875 a 2.50025,2.50025 0 0 0 -2.0625,-0.75 z"
       style="font-size:medium;font-style:normal;font-variant:normal;font-weight:normal;font-stretch:normal;text-indent:0;text-align:start;text-decoration:none;line-height:normal;letter-spacing:normal;word-spacing:normal;text-transform:none;direction:ltr;block-progression:tb;writing-mode:lr-tb;text-anchor:start;baseline-shift:baseline;color:#000000;fill:#000000;fill-opacity:1;stroke:none;stroke-width:5;marker:none;visibility:visible;display:inline;overflow:visible;enable-background:accumulate;font-family:Sans;-inkscape-font-specification:Sans"
       id="path32217" />
    <path
       inkscape:connector-curvature="0"
       d="m 195.72905,468.31103 a 2.50025,2.50025 0 0 0 -1.5,4.28125 l 10.6875,10.65625 a 2.50025,2.50025 0 1 0 3.53125,-3.53125 l -10.6875,-10.65625 a 2.50025,2.50025 0 0 0 -2.03125,-0.75 z"
       style="font-size:medium;font-style:normal;font-variant:normal;font-weight:normal;font-stretch:normal;text-indent:0;text-align:start;text-decoration:none;line-height:normal;letter-spacing:normal;word-spacing:normal;text-transform:none;direction:ltr;block-progression:tb;writing-mode:lr-tb;text-anchor:start;baseline-shift:baseline;color:#000000;fill:#000000;fill-opacity:1;stroke:none;stroke-width:5;marker:none;visibility:visible;display:inline;overflow:visible;enable-background:accumulate;font-family:Sans;-inkscape-font-specification:Sans"
       id="path32219" />
    <path
       inkscape:connector-curvature="0"
       id="path32221"
       d="m 138.69476,536.76101 -23.85929,0"
       style="fill:none;stroke:#000000;stroke-width:5;stroke-linecap:round;stroke-linejoin:round;stroke-miterlimit:4;stroke-opacity:1;stroke-dasharray:none;stroke-dashoffset:0" />
    <path
       inkscape:connector-curvature="0"
       id="path32223"
       d="m 145.82445,515.69846 -31.06307,0"
       style="fill:none;stroke:#000000;stroke-width:5;stroke-linecap:round;stroke-linejoin:round;stroke-miterlimit:4;stroke-opacity:1;stroke-dasharray:none;stroke-dashoffset:0" />
    <path
       inkscape:connector-curvature="0"
       id="path32225"
       d="m 139.5669,479.19756 -6.41384,0 -4.27589,4.27589 0,7.41993 -2.70387,2.70387 -12.3875,0"
       style="fill:none;stroke:#000000;stroke-width:5;stroke-linecap:round;stroke-linejoin:round;stroke-miterlimit:4;stroke-opacity:1;stroke-dasharray:none;stroke-dashoffset:0" />
    <path
       sodipodi:nodetypes="ccccscccccsccccsccccsccccsccccsccccsccccscccscccccccccccccccccccccccccccccccccccccccccccccccccccccccccccccccccccccccccccccccccccscccccccccccccccccccccsccccsccccsccccsccccsccccsccccscccc"
       inkscape:connector-curvature="0"
       id="path32227"
       d="m 346.10405,461.76678 0,36.71875 c -0.0343,1.50629 1.55902,2.82038 3.03125,2.5 l 59.40625,59.375 c 0.44856,0.50519 1.329,0.5352 1.81092,0.0617 0.48192,-0.47347 0.4675,-1.3543 -0.0297,-1.81173 l -59.34372,-59.37497 c 0.0795,-0.24169 0.12182,-0.49558 0.125,-0.75 l 0,-7.5625 57.4375,57.4375 c 0.44856,0.50519 1.329,0.5352 1.81092,0.0617 0.48192,-0.47347 0.4675,-1.3543 -0.0297,-1.81173 l -59.21872,-59.24997 0,-8.4375 57.4375,57.4375 c 0.44856,0.50519 1.329,0.5352 1.81092,0.0617 0.48192,-0.47347 0.4675,-1.3543 -0.0297,-1.81173 l -59.21872,-59.24997 0,-8.4375 57.4375,57.4375 c 0.44856,0.50519 1.329,0.5352 1.81092,0.0617 0.48192,-0.47347 0.4675,-1.3543 -0.0297,-1.81173 l -55.8125,-55.84375 8.4375,0 45.59378,45.59378 c 0.44856,0.50519 1.329,0.5352 1.81092,0.0617 0.48192,-0.47347 0.4675,-1.3543 -0.0297,-1.81173 l -43.8125,-43.84375 8.4375,0 33.59378,33.59378 c 0.44856,0.50519 1.329,0.5352 1.81092,0.0617 0.48192,-0.47347 0.4675,-1.3543 -0.0297,-1.81173 l -31.8125,-31.84375 8.4375,0 21.59378,21.59378 c 0.44856,0.50519 1.329,0.5352 1.81092,0.0617 0.48192,-0.47347 0.4675,-1.3543 -0.0297,-1.81173 l -19.84375,-19.84375 8.46875,0 9.59375,9.59375 c 0.44856,0.50519 1.329,0.5352 1.81092,0.0617 0.48192,-0.47347 0.4675,-1.3543 -0.0297,-1.81173 l -7.84375,-7.84375 4.5,0 c 1.309,0.0491 2.54466,-1.09725 2.59375,-2.40625 0.0491,-1.309 -1.09725,-2.54466 -2.40625,-2.59375 l -9.6875,0 -3.53125,0 -8.46875,0 -3.53125,0 -8.4375,0 -3.5625,0 -8.4375,0 -3.5625,0 -6.84375,0 z m 66.78125,0 0,21.40625 -14.40625,-14.40625 c -0.2822,-0.29997 -0.71926,-0.44566 -1.125,-0.375 -0.88972,0.17692 -1.27726,1.49456 -0.625,2.125 l 16.15625,16.1875 0,8.46875 -26.4375,-26.4375 c -0.25624,-0.26389 -0.63343,-0.40534 -1,-0.375 -0.95562,0.0817 -1.44867,1.49918 -0.75,2.15625 l 28.1875,28.1875 0,8.46875 -38.875,-38.875 c -0.25624,-0.26389 -0.63343,-0.40534 -1,-0.375 -0.95562,0.0817 -1.44867,1.49918 -0.75,2.15625 l 40.625,40.625 0,8.46875 -50.8125,-50.8125 c -0.28826,-0.30975 -0.74107,-0.4566 -1.15625,-0.375 -0.87982,0.1942 -1.24547,1.50287 -0.59375,2.125 l 52.5625,52.59375 0,8.46875 -57.03125,-57.0625 c -0.23515,-0.23992 -0.57032,-0.37861 -0.90625,-0.375 -0.99701,-0.011 -1.59777,1.4694 -0.875,2.15625 l 58.8125,58.8125 0,8.46875 -57.03125,-57.0625 c -0.23515,-0.23992 -0.57032,-0.37861 -0.90625,-0.375 -0.99701,-0.011 -1.59777,1.4694 -0.875,2.15625 l 58.8125,58.8125 0,8.46875 -57.03125,-57.0625 c -0.23515,-0.23992 -0.57032,-0.37861 -0.90625,-0.375 -0.99701,-0.011 -1.59777,1.4694 -0.875,2.15625 l 58.8125,58.8125 0,8.46875 -57.03125,-57.0625 c -0.23515,-0.23992 -0.57032,-0.37861 -0.90625,-0.375 -0.99701,-0.011 -1.59777,1.4694 -0.875,2.15625 l 58.8125,58.8125 0,8.46875 -57.03125,-57.0625 c -0.23515,-0.23992 -0.57032,-0.37861 -0.90625,-0.375 -0.99701,-0.011 -1.59777,1.4694 -0.875,2.15625 l 58.8125,58.8125 0,8.46875 -57.03125,-57.0625 c -0.23515,-0.23992 -0.57032,-0.37861 -0.90625,-0.375 -0.99701,-0.011 -1.59777,1.4694 -0.875,2.15625 l 58.75,58.75 -8.46875,0 -48.5,-48.53125 c -0.23515,-0.23992 -0.57032,-0.37861 -0.90625,-0.375 -0.99701,-0.011 -1.59777,1.4694 -0.875,2.15625 l 46.75,46.75 -8.46875,0 -36.5,-36.53125 c -0.23515,-0.23992 -0.57032,-0.37861 -0.90625,-0.375 -0.99701,-0.011 -1.59777,1.4694 -0.875,2.15625 l 34.75,34.75 -8.4375,0 -24.53125,-24.53125 c -0.23515,-0.23992 -0.57032,-0.37861 -0.90625,-0.375 -0.99701,-0.011 -1.59777,1.4694 -0.875,2.15625 l 22.75,22.75 -8.4375,0 -12.53125,-12.53125 c -0.23515,-0.23992 -0.57032,-0.37861 -0.90625,-0.375 -0.99701,-0.011 -1.59777,1.4694 -0.875,2.15625 l 10.75,10.75 -8.5625,0 c -1.309,-0.0491 -2.54466,1.09725 -2.59375,2.40625 -0.0491,1.309 1.09725,2.54466 2.40625,2.59375 l 13.75,0 3.5625,0 8.4375,0 3.53125,0 8.46875,0 3.53125,0 8.46875,0 3.53125,0 3.53125,0 5,0 0,-96.90625 c 0,-1.09366 0.0167,-1.34351 0,-2.5625 l 0,-38.40625 z m -64.5625,47.4375 c -1.22306,0.13836 -2.24181,1.30061 -2.21875,2.53125 l 0,87.90625 5,0 0,-12.71875 5.1875,5.1875 c 0.46628,0.46654 1.31508,0.46665 1.78149,2.4e-4 0.46641,-0.46641 0.4663,-1.31521 -2.4e-4,-1.78149 l -6.96875,-6.96875 0,-8.4375 16.90625,16.875 c 0.42799,0.57149 1.37973,0.63946 1.88459,0.13459 0.50487,-0.50486 0.4369,-1.4566 -0.13459,-1.88459 l -18.65625,-18.6875 0,-8.4375 29.34375,29.34375 c 0.45743,0.49717 1.33826,0.51159 1.81173,0.0297 0.47347,-0.48192 0.44346,-1.36236 -0.0617,-1.81092 l -31.09378,-31.12503 0,-8.4375 41.65625,41.65625 c 0.46628,0.46654 1.31508,0.46665 1.78149,2.4e-4 0.46641,-0.46641 0.4663,-1.31521 -2.4e-4,-1.78149 l -43.4375,-43.4375 0,-8.4375 53.1875,53.15625 c 0.42799,0.57149 1.37973,0.63946 1.88459,0.13459 0.50487,-0.50486 0.4369,-1.4566 -0.13459,-1.88459 l -54.9375,-54.96875 0,-8.4375 57.4375,57.4375 c 0.44856,0.50519 1.329,0.5352 1.81092,0.0617 0.48192,-0.47347 0.4675,-1.3543 -0.0297,-1.81173 l -59.21872,-59.24997 0,-8.4375 57.4375,57.4375 c 0.44856,0.50519 1.329,0.5352 1.81092,0.0617 0.48192,-0.47347 0.4675,-1.3543 -0.0297,-1.81173 l -59.25,-59.28125 c -0.18442,-1.26749 -1.47698,-2.26629 -2.75,-2.125 z"
       style="fill:#000000;fill-opacity:1;stroke:none" />
    <path
       style="fill:none;stroke:#000000;stroke-width:5;stroke-linecap:round;stroke-linejoin:round;stroke-miterlimit:4;stroke-opacity:1;stroke-dasharray:none;stroke-dashoffset:0"
       d="m 347.63942,524.41545 -23.85929,0"
       id="path32229"
       inkscape:connector-curvature="0" />
    <path
       sodipodi:nodetypes="cccc"
       style="fill:none;stroke:#000000;stroke-width:2.5;stroke-linecap:round;stroke-linejoin:round;stroke-miterlimit:4;stroke-opacity:1;stroke-dasharray:none;stroke-dashoffset:0"
       d="m 323.95756,505.29971 18.10964,0 6.92082,0.62881 6.41383,5.40774"
       id="path32231"
       inkscape:connector-curvature="0" />
    <path
       style="fill:none;stroke:#000000;stroke-width:5;stroke-linecap:round;stroke-linejoin:round;stroke-miterlimit:4;stroke-opacity:1;stroke-dasharray:none;stroke-dashoffset:0"
       d="m 348.35528,473.03985 -6.41384,0 -4.27589,4.27589 0,7.41993 -2.70387,2.70387 -12.3875,0"
       id="path32233"
       inkscape:connector-curvature="0" />
    <path
       inkscape:connector-curvature="0"
       id="path32235"
       d="m 547.8228,461.76678 0,36.71875 a 2.50025,2.50025 0 0 0 2.4375,2.5625 l 59.65625,59.65625 a 1.750175,1.750175 0 1 0 2.46875,-2.46875 l -59.5625,-59.5625 a 2.50025,2.50025 0 0 0 0,-0.1875 l 0,-19.21875 57.28125,57.28125 a 1.5026019,1.5026019 0 1 0 2.125,-2.125 l -59.40625,-59.40625 0,-8.25 11.84375,0 45.59375,45.59375 a 1.250125,1.250125 0 1 0 1.78125,-1.75 l -43.8125,-43.84375 20.8125,0 21.40625,21.40625 a 1.0001,1.0001 0 1 0 1.40625,-1.40625 l -20,-20 17.40625,0 a 2.5017572,2.5017572 0 1 0 0.1875,-5 l -22.59375,0 -2.8125,0 -20.8125,0 -3.5625,0 -6.84375,0 -5,0 z m 66.78125,0 0,15.75 -7.40625,-7.40625 a 1.0001,1.0001 0 0 0 -0.8125,-0.3125 1.0001,1.0001 0 0 0 -0.59375,1.71875 l 8.8125,8.8125 0,21.1875 -31.25,-31.25 a 1.0001,1.0001 0 0 0 -0.71875,-0.3125 1.0001,1.0001 0 0 0 -0.6875,1.71875 l 32.65625,32.65625 0,20.84375 -55.21875,-55.21875 a 1.250125,1.250125 0 0 0 -1,-0.375 1.250125,1.250125 0 0 0 -0.75,2.125 l 56.96875,57 0,20.09375 -56.84375,-56.84375 a 1.50015,1.50015 0 0 0 -1.09375,-0.46875 1.50015,1.50015 0 0 0 -1.03125,2.59375 l 58.96875,58.96875 0,19.40625 -56.6875,-56.6875 a 1.750175,1.750175 0 0 0 -1.40625,-0.53125 1.750175,1.750175 0 0 0 -1.0625,3 l 59.15625,59.15625 0,17.25 -1.46875,0 -55.03125,-55.03125 a 2.0002,2.0002 0 0 0 -1.625,-0.625 2.0002,2.0002 0 0 0 -1.21875,3.4375 l 52.25,52.21875 -18,0 -31.21875,-31.21875 a 2.250225,2.250225 0 0 0 -1.84375,-0.6875 2.250225,2.250225 0 0 0 -1.34375,3.875 l 28.03125,28.03125 -17.28125,0 -7.40625,-7.40625 a 2.50025,2.50025 0 0 0 -2.03125,-0.75 2.50025,2.50025 0 0 0 -1.5,4.28125 l 3.875,3.875 -0.90625,0 a 2.5017572,2.5017572 0 1 0 -0.1875,5 l 6.09375,0 7.0625,0 17.28125,0 6.375,0 18,0 7.09375,0 0,-137.875 -5,0 z m -64.5625,59 a 2.50025,2.50025 0 0 0 -2.21875,2.53125 l 0,76.34375 5,0 0,-22.96875 14.875,14.875 a 2.50025,2.50025 0 1 0 3.53125,-3.53125 l -18.40625,-18.40625 0,-17.28125 38.9375,38.9375 a 2.2539029,2.2539029 0 1 0 3.1875,-3.1875 l -42.125,-42.125 0,-17.96875 56.9375,56.90625 a 2.0002,2.0002 0 1 0 2.8125,-2.8125 l -60.15625,-60.1875 a 2.50025,2.50025 0 0 0 -2.375,-1.125 z"
       style="fill:#000000;fill-opacity:1;stroke:none" />
    <path
       style="fill:none;stroke:#000000;stroke-width:5;stroke-linecap:round;stroke-linejoin:round;stroke-miterlimit:4;stroke-opacity:1;stroke-dasharray:none;stroke-dashoffset:0"
       d="m 549.1138,529.69743 -23.85929,0"
       id="path32237"
       inkscape:connector-curvature="0" />
    <path
       style="fill:none;stroke:#000000;stroke-width:5;stroke-linecap:round;stroke-linejoin:round;stroke-miterlimit:4;stroke-opacity:1;stroke-dasharray:none;stroke-dashoffset:0"
       d="m 550.0834,483.80433 -6.41384,0 -4.27589,4.27589 0,7.41993 -2.70387,2.70387 -12.3875,0"
       id="path32239"
       inkscape:connector-curvature="0" />
    <path
       inkscape:connector-curvature="0"
       id="path32241"
       d="m 340.87486,504.66697 -18.31321,0"
       style="fill:none;stroke:#000000;stroke-width:5.00000048;stroke-linecap:round;stroke-linejoin:round;stroke-miterlimit:4;stroke-opacity:1;stroke-dasharray:none;stroke-dashoffset:0" />
    <path
       inkscape:connector-curvature="0"
       id="path32243"
       d="m 555.91892,788.7782 -30.23545,0"
       style="fill:none;stroke:#000000;stroke-width:5;stroke-linecap:round;stroke-linejoin:round;stroke-miterlimit:4;stroke-opacity:1;stroke-dasharray:none;stroke-dashoffset:0" />
    <path
       style="fill:#000000;fill-opacity:1;stroke:none"
       d="m 137.35405,735.42369 0,36.75 a 2.50025,2.50025 0 0 0 0.71875,1.8125 2.50025,2.50025 0 0 0 0.375,0.4375 l 60.46875,60.46875 a 2.50025,2.50025 0 1 0 3.53125,-3.53125 l -60.09375,-60.09375 0,-16.9375 56.5625,56.5625 a 2.50025,2.50025 0 1 0 3.53125,-3.53125 l -60.09375,-60.09375 0,-6.84375 10.09375,0 46.46875,46.46875 a 2.50025,2.50025 0 1 0 3.53125,-3.53125 l -42.9375,-42.9375 16.9375,0 22.46875,22.46875 a 2.50025,2.50025 0 1 0 3.53125,-3.53125 l -18.9375,-18.9375 15.25,0 a 2.5017572,2.5017572 0 1 0 0.1875,-5 l -20.4375,0 -7.0625,0 -16.9375,0 -7.0625,0 -5.09375,0 -5,0 z m 66.78125,0 0,85.625 -56.15625,-56.15625 a 2.50025,2.50025 0 0 0 -2.0625,-0.75 2.50025,2.50025 0 0 0 -1.46875,4.28125 l 59.6875,59.6875 0,16.9375 -56.15625,-56.15625 a 2.50025,2.50025 0 0 0 -2.0625,-0.75 2.50025,2.50025 0 0 0 -1.46875,4.28125 l 59.6875,59.6875 0,16.1875 -0.75,0 -55.40625,-55.40625 a 2.50025,2.50025 0 0 0 -2.0625,-0.75 2.50025,2.50025 0 0 0 -1.46875,4.28125 l 51.875,51.875 -16.9375,0 -31.40625,-31.40625 a 2.50025,2.50025 0 0 0 -2.0625,-0.75 2.50025,2.50025 0 0 0 -1.46875,4.28125 l 27.875,27.875 -16.9375,0 -7.40625,-7.40625 a 2.50025,2.50025 0 0 0 -2.0625,-0.75 2.50025,2.50025 0 0 0 -1.46875,4.28125 l 3.875,3.875 -0.90625,0 a 2.5017572,2.5017572 0 1 0 -0.1875,5 l 6.09375,0 7.0625,0 16.9375,0 7.0625,0 16.9375,0 7.8125,0 0,-21.21875 a 2.50025,2.50025 0 0 0 0,-1.65625 l 0,-22.34375 a 2.50025,2.50025 0 0 0 0,-1.65625 l 0,-91 -5,0 z m -64.5625,58.5 a 2.50025,2.50025 0 0 0 -2.21875,2.53125 l 0,76.84375 5,0 0,-70.96875 56.5625,56.5625 a 2.50025,2.50025 0 1 0 3.53125,-3.53125 l -60.46875,-60.46875 a 2.50025,2.50025 0 0 0 -0.53125,-0.40625 2.50025,2.50025 0 0 0 -1.875,-0.5625 z"
       id="path32245"
       inkscape:connector-curvature="0" />
    <path
       id="path32247"
       style="font-size:medium;font-style:normal;font-variant:normal;font-weight:normal;font-stretch:normal;text-indent:0;text-align:start;text-decoration:none;line-height:normal;letter-spacing:normal;word-spacing:normal;text-transform:none;direction:ltr;block-progression:tb;writing-mode:lr-tb;text-anchor:start;baseline-shift:baseline;color:#000000;fill:#000000;fill-opacity:1;stroke:none;stroke-width:5;marker:none;visibility:visible;display:inline;overflow:visible;enable-background:accumulate;font-family:Sans;-inkscape-font-specification:Sans"
       d="m 171.8853,742.12419 a 2.50025,2.50025 0 0 0 -1.46875,4.28125 l 34.5,34.5 a 2.50025,2.50025 0 1 0 3.53125,-3.53125 l -34.5,-34.5 a 2.50025,2.50025 0 0 0 -2.0625,-0.75 z"
       inkscape:connector-curvature="0" />
    <path
       id="path32249"
       style="font-size:medium;font-style:normal;font-variant:normal;font-weight:normal;font-stretch:normal;text-indent:0;text-align:start;text-decoration:none;line-height:normal;letter-spacing:normal;word-spacing:normal;text-transform:none;direction:ltr;block-progression:tb;writing-mode:lr-tb;text-anchor:start;baseline-shift:baseline;color:#000000;fill:#000000;fill-opacity:1;stroke:none;stroke-width:5;marker:none;visibility:visible;display:inline;overflow:visible;enable-background:accumulate;font-family:Sans;-inkscape-font-specification:Sans"
       d="m 148.0103,741.96794 a 2.50025,2.50025 0 0 0 -1.75,4.3125 l 58.65625,58.625 a 2.50025,2.50025 0 1 0 3.53125,-3.53125 l -58.65625,-58.625 a 2.50025,2.50025 0 0 0 -1.78125,-0.78125 z"
       inkscape:connector-curvature="0" />
    <path
       id="path32251"
       style="font-size:medium;font-style:normal;font-variant:normal;font-weight:normal;font-stretch:normal;text-indent:0;text-align:start;text-decoration:none;line-height:normal;letter-spacing:normal;word-spacing:normal;text-transform:none;direction:ltr;block-progression:tb;writing-mode:lr-tb;text-anchor:start;baseline-shift:baseline;color:#000000;fill:#000000;fill-opacity:1;stroke:none;stroke-width:5;marker:none;visibility:visible;display:inline;overflow:visible;enable-background:accumulate;font-family:Sans;-inkscape-font-specification:Sans"
       d="m 139.91655,842.15544 a 2.50025,2.50025 0 0 0 -1.46875,4.28125 l 18.78125,18.78125 a 2.50025,2.50025 0 1 0 3.53125,-3.53125 l -18.78125,-18.78125 a 2.50025,2.50025 0 0 0 -2.0625,-0.75 z"
       inkscape:connector-curvature="0" />
    <path
       id="path32253"
       style="font-size:medium;font-style:normal;font-variant:normal;font-weight:normal;font-stretch:normal;text-indent:0;text-align:start;text-decoration:none;line-height:normal;letter-spacing:normal;word-spacing:normal;text-transform:none;direction:ltr;block-progression:tb;writing-mode:lr-tb;text-anchor:start;baseline-shift:baseline;color:#000000;fill:#000000;fill-opacity:1;stroke:none;stroke-width:5;marker:none;visibility:visible;display:inline;overflow:visible;enable-background:accumulate;font-family:Sans;-inkscape-font-specification:Sans"
       d="m 139.91655,818.15544 a 2.50025,2.50025 0 0 0 -1.46875,4.28125 l 42.65625,42.6875 a 2.50025,2.50025 0 1 0 3.53125,-3.53125 l -42.65625,-42.6875 a 2.50025,2.50025 0 0 0 -2.0625,-0.75 z"
       inkscape:connector-curvature="0" />
    <path
       id="path32255"
       style="font-size:medium;font-style:normal;font-variant:normal;font-weight:normal;font-stretch:normal;text-indent:0;text-align:start;text-decoration:none;line-height:normal;letter-spacing:normal;word-spacing:normal;text-transform:none;direction:ltr;block-progression:tb;writing-mode:lr-tb;text-anchor:start;baseline-shift:baseline;color:#000000;fill:#000000;fill-opacity:1;stroke:none;stroke-width:5;marker:none;visibility:visible;display:inline;overflow:visible;enable-background:accumulate;font-family:Sans;-inkscape-font-specification:Sans"
       d="m 195.72905,741.96794 a 2.50025,2.50025 0 0 0 -1.5,4.28125 l 10.6875,10.65625 a 2.50025,2.50025 0 1 0 3.53125,-3.53125 l -10.6875,-10.65625 a 2.50025,2.50025 0 0 0 -2.03125,-0.75 z"
       inkscape:connector-curvature="0" />
    <path
       style="fill:none;stroke:#000000;stroke-width:5;stroke-linecap:round;stroke-linejoin:round;stroke-miterlimit:4;stroke-opacity:1;stroke-dasharray:none;stroke-dashoffset:0"
       d="m 138.69476,810.41792 -23.85929,0"
       id="path32257"
       inkscape:connector-curvature="0" />
    <path
       style="fill:none;stroke:#000000;stroke-width:5;stroke-linecap:round;stroke-linejoin:round;stroke-miterlimit:4;stroke-opacity:1;stroke-dasharray:none;stroke-dashoffset:0"
       d="m 145.82445,789.35537 -31.06307,0"
       id="path32259"
       inkscape:connector-curvature="0" />
    <path
       style="fill:none;stroke:#000000;stroke-width:5;stroke-linecap:round;stroke-linejoin:round;stroke-miterlimit:4;stroke-opacity:1;stroke-dasharray:none;stroke-dashoffset:0"
       d="m 139.5669,752.85447 -6.41384,0 -4.27589,4.27589 0,7.41993 -2.70387,2.70387 -12.3875,0"
       id="path32261"
       inkscape:connector-curvature="0" />
    <path
       style="fill:#000000;fill-opacity:1;stroke:none"
       d="m 346.10405,735.42369 0,36.71875 c -0.0343,1.50629 1.55902,2.82038 3.03125,2.5 l 59.40625,59.375 c 0.44856,0.50519 1.329,0.5352 1.81092,0.0617 0.48192,-0.47347 0.4675,-1.3543 -0.0297,-1.81173 l -59.34372,-59.37497 c 0.0795,-0.24169 0.12182,-0.49558 0.125,-0.75 l 0,-7.5625 57.4375,57.4375 c 0.44856,0.50519 1.329,0.5352 1.81092,0.0617 0.48192,-0.47347 0.4675,-1.3543 -0.0297,-1.81173 l -59.21872,-59.24997 0,-8.4375 57.4375,57.4375 c 0.44856,0.50519 1.329,0.5352 1.81092,0.0617 0.48192,-0.47347 0.4675,-1.3543 -0.0297,-1.81173 l -59.21872,-59.24997 0,-8.4375 57.4375,57.4375 c 0.44856,0.50519 1.329,0.5352 1.81092,0.0617 0.48192,-0.47347 0.4675,-1.3543 -0.0297,-1.81173 l -55.8125,-55.84375 8.4375,0 45.59378,45.59378 c 0.44856,0.50519 1.329,0.5352 1.81092,0.0617 0.48192,-0.47347 0.4675,-1.3543 -0.0297,-1.81173 l -43.8125,-43.84375 8.4375,0 33.59378,33.59378 c 0.44856,0.50519 1.329,0.5352 1.81092,0.0617 0.48192,-0.47347 0.4675,-1.3543 -0.0297,-1.81173 l -31.8125,-31.84375 8.4375,0 21.59378,21.59378 c 0.44856,0.50519 1.329,0.5352 1.81092,0.0617 0.48192,-0.47347 0.4675,-1.3543 -0.0297,-1.81173 l -19.84375,-19.84375 8.46875,0 9.59375,9.59375 c 0.44856,0.50519 1.329,0.5352 1.81092,0.0617 0.48192,-0.47347 0.4675,-1.3543 -0.0297,-1.81173 l -7.84375,-7.84375 4.5,0 c 1.309,0.0491 2.54466,-1.09725 2.59375,-2.40625 0.0491,-1.309 -1.09725,-2.54466 -2.40625,-2.59375 l -9.6875,0 -3.53125,0 -8.46875,0 -3.53125,0 -8.4375,0 -3.5625,0 -8.4375,0 -3.5625,0 -6.84375,0 z m 66.78125,0 0,21.40625 -14.40625,-14.40625 c -0.2822,-0.29997 -0.71926,-0.44566 -1.125,-0.375 -0.88972,0.17692 -1.27726,1.49456 -0.625,2.125 l 16.15625,16.1875 0,8.46875 -26.4375,-26.4375 c -0.25624,-0.26389 -0.63343,-0.40534 -1,-0.375 -0.95562,0.0817 -1.44867,1.49918 -0.75,2.15625 l 28.1875,28.1875 0,8.46875 -38.875,-38.875 c -0.25624,-0.26389 -0.63343,-0.40534 -1,-0.375 -0.95562,0.0817 -1.44867,1.49918 -0.75,2.15625 l 40.625,40.625 0,8.46875 -50.8125,-50.8125 c -0.28826,-0.30975 -0.74107,-0.4566 -1.15625,-0.375 -0.87982,0.1942 -1.24547,1.50287 -0.59375,2.125 l 52.5625,52.59375 0,8.46875 -57.03125,-57.0625 c -0.23515,-0.23992 -0.57032,-0.37861 -0.90625,-0.375 -0.99701,-0.011 -1.59777,1.4694 -0.875,2.15625 l 58.8125,58.8125 0,8.46875 -57.03125,-57.0625 c -0.23515,-0.23992 -0.57032,-0.37861 -0.90625,-0.375 -0.99701,-0.011 -1.59777,1.4694 -0.875,2.15625 l 58.8125,58.8125 0,8.46875 -57.03125,-57.0625 c -0.23515,-0.23992 -0.57032,-0.37861 -0.90625,-0.375 -0.99701,-0.011 -1.59777,1.4694 -0.875,2.15625 l 58.8125,58.8125 0,8.46875 -57.03125,-57.0625 c -0.23515,-0.23992 -0.57032,-0.37861 -0.90625,-0.375 -0.99701,-0.011 -1.59777,1.4694 -0.875,2.15625 l 58.8125,58.8125 0,8.46875 -57.03125,-57.0625 c -0.23515,-0.23992 -0.57032,-0.37861 -0.90625,-0.375 -0.99701,-0.011 -1.59777,1.4694 -0.875,2.15625 l 58.8125,58.8125 0,8.46875 -57.03125,-57.0625 c -0.23515,-0.23992 -0.57032,-0.37861 -0.90625,-0.375 -0.99701,-0.011 -1.59777,1.4694 -0.875,2.15625 l 58.75,58.75 -8.46875,0 -48.5,-48.53125 c -0.23515,-0.23992 -0.57032,-0.37861 -0.90625,-0.375 -0.99701,-0.011 -1.59777,1.4694 -0.875,2.15625 l 46.75,46.75 -8.46875,0 -36.5,-36.53125 c -0.23515,-0.23992 -0.57032,-0.37861 -0.90625,-0.375 -0.99701,-0.011 -1.59777,1.4694 -0.875,2.15625 l 34.75,34.75 -8.4375,0 -24.53125,-24.53125 c -0.23515,-0.23992 -0.57032,-0.37861 -0.90625,-0.375 -0.99701,-0.011 -1.59777,1.4694 -0.875,2.15625 l 22.75,22.75 -8.4375,0 -12.53125,-12.53125 c -0.23515,-0.23992 -0.57032,-0.37861 -0.90625,-0.375 -0.99701,-0.011 -1.59777,1.4694 -0.875,2.15625 l 10.75,10.75 -8.5625,0 c -1.309,-0.0491 -2.54466,1.09725 -2.59375,2.40625 -0.0491,1.309 1.09725,2.54466 2.40625,2.59375 l 13.75,0 3.5625,0 8.4375,0 3.53125,0 8.46875,0 3.53125,0 8.46875,0 3.53125,0 3.53125,0 5,0 0,-96.90625 c 0,-1.09366 0.0167,-1.34351 0,-2.5625 l 0,-38.40625 z m -64.5625,47.4375 c -1.22306,0.13836 -2.24181,1.30061 -2.21875,2.53125 l 0,87.90625 5,0 0,-12.71875 5.1875,5.1875 c 0.46628,0.46654 1.31508,0.46665 1.78149,2.4e-4 0.46641,-0.46641 0.4663,-1.31521 -2.4e-4,-1.78149 l -6.96875,-6.96875 0,-8.4375 16.90625,16.875 c 0.42799,0.57149 1.37973,0.63946 1.88459,0.13459 0.50487,-0.50486 0.4369,-1.4566 -0.13459,-1.88459 l -18.65625,-18.6875 0,-8.4375 29.34375,29.34375 c 0.45743,0.49717 1.33826,0.51159 1.81173,0.0297 0.47347,-0.48192 0.44346,-1.36236 -0.0617,-1.81092 l -31.09378,-31.12503 0,-8.4375 41.65625,41.65625 c 0.46628,0.46654 1.31508,0.46665 1.78149,2.4e-4 0.46641,-0.46641 0.4663,-1.31521 -2.4e-4,-1.78149 l -43.4375,-43.4375 0,-8.4375 53.1875,53.15625 c 0.42799,0.57149 1.37973,0.63946 1.88459,0.13459 0.50487,-0.50486 0.4369,-1.4566 -0.13459,-1.88459 l -54.9375,-54.96875 0,-8.4375 57.4375,57.4375 c 0.44856,0.50519 1.329,0.5352 1.81092,0.0617 0.48192,-0.47347 0.4675,-1.3543 -0.0297,-1.81173 l -59.21872,-59.24997 0,-8.4375 57.4375,57.4375 c 0.44856,0.50519 1.329,0.5352 1.81092,0.0617 0.48192,-0.47347 0.4675,-1.3543 -0.0297,-1.81173 l -59.25,-59.28125 c -0.18442,-1.26749 -1.47698,-2.26629 -2.75,-2.125 z"
       id="path32263"
       inkscape:connector-curvature="0"
       sodipodi:nodetypes="ccccscccccsccccsccccsccccsccccsccccsccccscccscccccccccccccccccccccccccccccccccccccccccccccccccccccccccccccccccccccccccccccccccccscccccccccccccccccccccsccccsccccsccccsccccsccccsccccscccc" />
    <path
       inkscape:connector-curvature="0"
       id="path32265"
       d="m 347.63942,798.07236 -23.85929,0"
       style="fill:none;stroke:#000000;stroke-width:5;stroke-linecap:round;stroke-linejoin:round;stroke-miterlimit:4;stroke-opacity:1;stroke-dasharray:none;stroke-dashoffset:0" />
    <path
       inkscape:connector-curvature="0"
       id="path32267"
       d="m 323.95756,778.95662 18.10964,0 6.92082,0.62881 6.41383,5.40774"
       style="fill:none;stroke:#000000;stroke-width:2.5;stroke-linecap:round;stroke-linejoin:round;stroke-miterlimit:4;stroke-opacity:1;stroke-dasharray:none;stroke-dashoffset:0"
       sodipodi:nodetypes="cccc" />
    <path
       inkscape:connector-curvature="0"
       id="path32269"
       d="m 348.35528,746.69676 -6.41384,0 -4.27589,4.27589 0,7.41993 -2.70387,2.70387 -12.3875,0"
       style="fill:none;stroke:#000000;stroke-width:5;stroke-linecap:round;stroke-linejoin:round;stroke-miterlimit:4;stroke-opacity:1;stroke-dasharray:none;stroke-dashoffset:0" />
    <path
       style="fill:#000000;fill-opacity:1;stroke:none"
       d="m 547.8228,735.42369 0,36.71875 a 2.50025,2.50025 0 0 0 2.4375,2.5625 l 59.65625,59.65625 a 1.750175,1.750175 0 1 0 2.46875,-2.46875 l -59.5625,-59.5625 a 2.50025,2.50025 0 0 0 0,-0.1875 l 0,-19.21875 57.28125,57.28125 a 1.5026019,1.5026019 0 1 0 2.125,-2.125 l -59.40625,-59.40625 0,-8.25 11.84375,0 45.59375,45.59375 a 1.250125,1.250125 0 1 0 1.78125,-1.75 l -43.8125,-43.84375 20.8125,0 21.40625,21.40625 a 1.0001,1.0001 0 1 0 1.40625,-1.40625 l -20,-20 17.40625,0 a 2.5017572,2.5017572 0 1 0 0.1875,-5 l -22.59375,0 -2.8125,0 -20.8125,0 -3.5625,0 -6.84375,0 -5,0 z m 66.78125,0 0,15.75 -7.40625,-7.40625 a 1.0001,1.0001 0 0 0 -0.8125,-0.3125 1.0001,1.0001 0 0 0 -0.59375,1.71875 l 8.8125,8.8125 0,21.1875 -31.25,-31.25 a 1.0001,1.0001 0 0 0 -0.71875,-0.3125 1.0001,1.0001 0 0 0 -0.6875,1.71875 l 32.65625,32.65625 0,20.84375 -55.21875,-55.21875 a 1.250125,1.250125 0 0 0 -1,-0.375 1.250125,1.250125 0 0 0 -0.75,2.125 l 56.96875,57 0,20.09375 -56.84375,-56.84375 a 1.50015,1.50015 0 0 0 -1.09375,-0.46875 1.50015,1.50015 0 0 0 -1.03125,2.59375 l 58.96875,58.96875 0,19.40625 -56.6875,-56.6875 a 1.750175,1.750175 0 0 0 -1.40625,-0.53125 1.750175,1.750175 0 0 0 -1.0625,3 l 59.15625,59.15625 0,17.25 -1.46875,0 -55.03125,-55.03125 a 2.0002,2.0002 0 0 0 -1.625,-0.625 2.0002,2.0002 0 0 0 -1.21875,3.4375 l 52.25,52.21875 -18,0 -31.21875,-31.21875 a 2.250225,2.250225 0 0 0 -1.84375,-0.6875 2.250225,2.250225 0 0 0 -1.34375,3.875 l 28.03125,28.03125 -17.28125,0 -7.40625,-7.40625 a 2.50025,2.50025 0 0 0 -2.03125,-0.75 2.50025,2.50025 0 0 0 -1.5,4.28125 l 3.875,3.875 -0.90625,0 a 2.5017572,2.5017572 0 1 0 -0.1875,5 l 6.09375,0 7.0625,0 17.28125,0 6.375,0 18,0 7.09375,0 0,-137.875 -5,0 z m -64.5625,59 a 2.50025,2.50025 0 0 0 -2.21875,2.53125 l 0,76.34375 5,0 0,-22.96875 14.875,14.875 a 2.50025,2.50025 0 1 0 3.53125,-3.53125 l -18.40625,-18.40625 0,-17.28125 38.9375,38.9375 a 2.2539029,2.2539029 0 1 0 3.1875,-3.1875 l -42.125,-42.125 0,-17.96875 56.9375,56.90625 a 2.0002,2.0002 0 1 0 2.8125,-2.8125 l -60.15625,-60.1875 a 2.50025,2.50025 0 0 0 -2.375,-1.125 z"
       id="path32271"
       inkscape:connector-curvature="0" />
    <path
       inkscape:connector-curvature="0"
       id="path32273"
       d="m 549.1138,803.35434 -23.85929,0"
       style="fill:none;stroke:#000000;stroke-width:5;stroke-linecap:round;stroke-linejoin:round;stroke-miterlimit:4;stroke-opacity:1;stroke-dasharray:none;stroke-dashoffset:0" />
    <path
       inkscape:connector-curvature="0"
       id="path32275"
       d="m 550.0834,757.46124 -6.41384,0 -4.27589,4.27589 0,7.41993 -2.70387,2.70387 -12.3875,0"
       style="fill:none;stroke:#000000;stroke-width:5;stroke-linecap:round;stroke-linejoin:round;stroke-miterlimit:4;stroke-opacity:1;stroke-dasharray:none;stroke-dashoffset:0" />
    <path
       style="fill:none;stroke:#000000;stroke-width:5.00000048;stroke-linecap:round;stroke-linejoin:round;stroke-miterlimit:4;stroke-opacity:1;stroke-dasharray:none;stroke-dashoffset:0"
       d="m 340.87486,778.32388 -18.31321,0"
       id="path32277"
       inkscape:connector-curvature="0" />
  </g>
</svg>
